<svg xmlns="http://www.w3.org/2000/svg" width="1191.339" height="808.843" viewBox="0 0 1191.339 808.843">
  <path id="Path_44511" data-name="Path 44511" d="M936.7,454.425l-1.334,7.953a195.511,195.511,0,0,1-45.151,5.318q-9.32,0-22.576-3.985-17.273-5.294-17.273-13.272,0-26.568,39.849-26.576Q936.691,423.864,936.7,454.425ZM1084.122,94.488Q988.486,38.716,867.639,38.7q-172.682,0-296.18,67.742Q487.8,151.626,435.991,215.351q-62.456,75.7-62.424,158.044,0,65.091,42.5,100.939,38.5,33.229,106.257,33.2,92.928,0,186.589-75.029,93.636-75.021,93.636-166.68,0-78.363-95.62-78.347-66.433,0-140.787,42.483-83.657,47.818-94.286,107.574,41.133-61.066,102.256-98.271,65.067-42.5,134.151-42.5,74.362,0,74.362,74.362,0,71.752-79.014,144.788-79.046,73.045-181.286,73.045-123.522,0-123.53-115.561,0-150.066,188.605-253.664Q702.943,57.3,867.639,57.307q112.861,0,189.906,54.357-127.5,86.195-294.846,323.5Q652.449,590.333,535.6,692.41,373.551,832.937,236.765,832.937q-177.976,0-176.634-96.97,17.249,13.3,34.53,13.3,39.84,0,39.832-29.227c0-7.97-3.546-16.135-10.621-24.576q-10.637-12.613-22.575-12.605-61.09,0-61.09,59.284,0,30.3,34.53,63.221,45.135,42.183,162.029,42.174,134.135,0,284.225-84.837Q631.216,700.4,730.837,574.459q11.955-14.589,162.029-233.333,96.929-140.5,183.287-214.759,51.8,47.818,51.787,115.544,0,73.045-51.136,133.468-51.136,60.48-122.847,83.015-15.931-46.452-66.409-46.484-54.454,0-54.438,37.2c0,9.743,7.5,17.712,22.576,23.893q22.567,9.319,38.515,9.32,15.931,0,37.181-5.335-9.3,23.933-77.03,124.848-50.5,77.046-50.469,135.469,0,43.841,19.924,74.394,23.909,35.84,65.075,35.848,37.181,0,121.529-69.743,84.317-69.7,84.332-104.257-9.295,0-46.484,39.865Q999.1,766.52,973.88,787.786q-47.818,39.84-85,39.832-41.182,0-41.182-54.259,0-42.329,55.788-127.727,55.8-85.366,55.788-146.252a122.882,122.882,0,0,0-2.651-26.479q88.952-18.517,152.726-78.087,71.727-66.165,71.727-150.888,0-80.754-78.363-135.013,59.749-44.988,128.833-51.608Q1158.476,55.989,1084.122,94.488Z" transform="translate(-40.206 -38.7)" fill="rgba(145,109,57,0.36)" opacity="0.26"/>
</svg>
